# xmcd
#
# Track frame offsets:
#	150
#	14567
#	30762
#	46997
#	67352
#	85547
#	97880
#	114055
#	131092
#	147350
#	165455
#	182792
#	200907
#	217002
#	229580
#
# Disc length: 3282 seconds
#
# Revision: 2
# Processed by: cddbd v1.5.1PL2 Copyright (c) Steve Scherf et al.
# Submitted via: audiograbber 1.83.01
#
DISCID=cb0cd00f
DTITLE=Music Maestro - MM6253
DYEAR=1900
DGENRE=Karaoke
TTITLE0=Alabama - How Do You Fall In Love
TTITLE1=Tippin, Aaron - For You I Will
TTITLE2=Chesney, Kenny - I WIll Stand
TTITLE3=Parton, Dolly - Honky Tonk Songs
TTITLE4=Brooks, Garth - You Move Me
TTITLE5=Trevino, Rick - Only Lonely Me
TTITLE6=Carson, Jeff - Shine On
TTITLE7=Warren Brothers, The - Guilty
TTITLE8=Clark, Terri - You're Easy On The Eyes
TTITLE9=White, Bryan - Tree Of Hearts
TTITLE10=Raye, Collin - Someone You Used To Know
TTITLE11=Tritt, Travis - If I Lost You
TTITLE12=Herndon, Ty - It Must Be Love
TTITLE13=Walker, Clay - You're Beginning To Get To Me
TTITLE14=Dean, Billy - Real Man
EXTD=As Listed In KJ Pro
EXTT0=
EXTT1=
EXTT2=
EXTT3=
EXTT4=
EXTT5=
EXTT6=
EXTT7=
EXTT8=
EXTT9=
EXTT10=
EXTT11=
EXTT12=
EXTT13=
EXTT14=
PLAYORDER=
